<svg xmlns="http://www.w3.org/2000/svg" xmlns:xlink="http://www.w3.org/1999/xlink" width="578.094" height="577.157" viewBox="0 0 578.094 577.157">
  <defs>
    <linearGradient id="linear-gradient" x1="1.091" y1="1.163" x2="0.386" y2="0.408" gradientUnits="objectBoundingBox">
      <stop offset="0" stop-color="#dae3fe"/>
      <stop offset="1" stop-color="#e9effd"/>
    </linearGradient>
    <linearGradient id="linear-gradient-2" x1="1.965" y1="-0.9" x2="0.203" y2="0.786" gradientUnits="objectBoundingBox">
      <stop offset="0" stop-color="#4f52ff"/>
      <stop offset="1" stop-color="#4042e2"/>
    </linearGradient>
    <linearGradient id="linear-gradient-3" x1="1.519" y1="-0.775" x2="-1.484" y2="2.907" gradientUnits="objectBoundingBox">
      <stop offset="0" stop-color="#09005d"/>
      <stop offset="1" stop-color="#1a0f91"/>
    </linearGradient>
    <linearGradient id="linear-gradient-4" x1="1.004" y1="-2.464" x2="-0.074" y2="4.125" xlink:href="#linear-gradient-3"/>
    <linearGradient id="linear-gradient-5" x1="0.5" y1="-5.657" x2="0.5" y2="9.178" xlink:href="#linear-gradient-2"/>
    <linearGradient id="linear-gradient-6" x1="0.609" y1="-0.143" x2="-0.031" y2="3.634" gradientUnits="objectBoundingBox">
      <stop offset="0" stop-color="#e1473d"/>
      <stop offset="1" stop-color="#e9605a"/>
    </linearGradient>
    <linearGradient id="linear-gradient-7" x1="1.055" y1="-8.3" x2="0.199" y2="5.224" gradientUnits="objectBoundingBox">
      <stop offset="0" stop-color="#ff928e"/>
      <stop offset="1" stop-color="#fe7062"/>
    </linearGradient>
    <linearGradient id="linear-gradient-8" x1="0.994" y1="-7.355" x2="0.139" y2="6.171" xlink:href="#linear-gradient-7"/>
    <linearGradient id="linear-gradient-9" x1="0.583" y1="-32.991" x2="0.494" y2="3.22" xlink:href="#linear-gradient-6"/>
    <linearGradient id="linear-gradient-10" x1="-5.348" y1="-41.143" x2="0.385" y2="-33.277" xlink:href="#linear-gradient-6"/>
    <linearGradient id="linear-gradient-11" x1="0.549" y1="-1.126" x2="0.777" y2="-8.677" xlink:href="#linear-gradient-6"/>
    <linearGradient id="linear-gradient-12" x1="1.283" y1="0.732" x2="-0.151" y2="-0.507" xlink:href="#linear-gradient-7"/>
    <linearGradient id="linear-gradient-13" x1="-0.041" y1="-5.16" x2="-0.781" y2="4.604" xlink:href="#linear-gradient-6"/>
    <linearGradient id="linear-gradient-14" x1="0.501" y1="-0.461" x2="0.495" y2="4.188" xlink:href="#linear-gradient-6"/>
    <linearGradient id="linear-gradient-15" x1="0.978" y1="-2.732" x2="0.752" y2="-1.203" xlink:href="#linear-gradient-6"/>
    <linearGradient id="linear-gradient-16" x1="10.794" y1="-14.52" x2="8.479" y2="-11.776" xlink:href="#linear-gradient-7"/>
    <linearGradient id="linear-gradient-17" x1="0.32" y1="-3.179" x2="0.193" y2="-1.035" xlink:href="#linear-gradient-6"/>
    <linearGradient id="linear-gradient-18" x1="1.359" y1="-1.633" x2="-0.453" y2="-0.759" xlink:href="#linear-gradient-7"/>
    <linearGradient id="linear-gradient-19" x1="0.32" y1="-3.05" x2="0.197" y2="-0.779" xlink:href="#linear-gradient-6"/>
    <linearGradient id="linear-gradient-20" x1="105.894" y1="-13.072" x2="103.579" y2="-10.327" xlink:href="#linear-gradient-7"/>
    <linearGradient id="linear-gradient-21" x1="-0.275" y1="-2.352" x2="0.447" y2="-0.607" xlink:href="#linear-gradient-6"/>
    <linearGradient id="linear-gradient-22" x1="0.49" y1="-2.177" x2="0.146" y2="-0.319" xlink:href="#linear-gradient-7"/>
    <linearGradient id="linear-gradient-23" x1="-0.298" y1="-2.608" x2="0.397" y2="-0.771" xlink:href="#linear-gradient-6"/>
    <linearGradient id="linear-gradient-24" x1="-9.325" y1="-1.338" x2="-9.762" y2="0.108" gradientUnits="objectBoundingBox">
      <stop offset="0" stop-color="#febbba"/>
      <stop offset="1" stop-color="#ff928e"/>
    </linearGradient>
    <linearGradient id="linear-gradient-25" x1="-13.172" y1="0.5" x2="-12.172" y2="0.5" xlink:href="#linear-gradient-2"/>
    <linearGradient id="linear-gradient-26" x1="-12.557" y1="-3.224" x2="-12.791" y2="-1.441" xlink:href="#linear-gradient-3"/>
    <linearGradient id="linear-gradient-27" x1="-48.652" y1="0.5" x2="-47.652" y2="0.5" xlink:href="#linear-gradient-24"/>
    <linearGradient id="linear-gradient-28" x1="-45.3" y1="0.5" x2="-44.3" y2="0.5" xlink:href="#linear-gradient-2"/>
    <linearGradient id="linear-gradient-29" x1="-28.81" y1="-2.242" x2="-29.215" y2="-1.31" xlink:href="#linear-gradient-3"/>
    <linearGradient id="linear-gradient-30" x1="-49.953" y1="0.5" x2="-48.953" y2="0.5" xlink:href="#linear-gradient-24"/>
    <linearGradient id="linear-gradient-31" x1="-4.796" y1="0.066" x2="-5.952" y2="1.243" xlink:href="#linear-gradient-3"/>
    <linearGradient id="linear-gradient-32" x1="3.172" y1="-4.621" x2="-0.62" y2="2.647" xlink:href="#linear-gradient-2"/>
    <linearGradient id="linear-gradient-33" x1="2.454" y1="-1.006" x2="1.585" y2="-0.39" xlink:href="#linear-gradient-3"/>
    <linearGradient id="linear-gradient-34" x1="-25.14" y1="1.478" x2="-24.867" y2="0.434" xlink:href="#linear-gradient-24"/>
    <linearGradient id="linear-gradient-35" x1="-17.249" y1="0.35" x2="-18.361" y2="1.106" xlink:href="#linear-gradient-24"/>
    <linearGradient id="linear-gradient-36" x1="-2.298" y1="2.739" x2="0.335" y2="0.588" xlink:href="#linear-gradient-3"/>
    <linearGradient id="linear-gradient-37" x1="-74.185" y1="-0.685" x2="-78.735" y2="1.783" xlink:href="#linear-gradient-24"/>
    <linearGradient id="linear-gradient-38" x1="1.328" y1="1.44" x2="-1.403" y2="-1.659" xlink:href="#linear-gradient-6"/>
    <linearGradient id="linear-gradient-39" x1="1.03" y1="0.127" x2="-0.091" y2="0.916" xlink:href="#linear-gradient-7"/>
    <linearGradient id="linear-gradient-40" x1="-34.204" y1="-0.218" x2="-35.165" y2="1.17" xlink:href="#linear-gradient-24"/>
  </defs>
  <g id="_01_illustration" data-name="01_illustration" transform="translate(0.008 -0.008)" style="isolation: isolate">
    <g id="Illustration" transform="translate(-0.008 0.008)">
      <g id="Group_82" data-name="Group 82" transform="translate(0 0)">
        <path id="Path_377" data-name="Path 377" d="M508.533,507.372c-15.047,15.511-28.512,24.627-38.82,31.51-100.536,67.129-215.458,47.781-250.989,41.168-57.326-10.669-105.716-18.2-147.292-55.759-94.473-85.353-89.879-263.407-17.69-373.7C62.3,137.512,134.382,30.666,249.554,15.611c2.817-.369,4.918-.577,6.759-.773C274.129,12.951,384.538,3,474.563,78.419a268.527,268.527,0,0,1,52.856,59.972c70.319,108.6,70.542,276.8-18.886,368.98Z" transform="translate(0.008 -10.615)" fill="url(#linear-gradient)"/>
        <path id="Path_378" data-name="Path 378" d="M1784.823,543.359c-.006-.025-.01-.049-.017-.076-2.048-9.469-7.842-32.287-16.987-36.958a1.076,1.076,0,0,1-.563-.687l-2.444-9.72a1.056,1.056,0,0,1,.489-1.163c.186-.111.371-.223.555-.338a1.04,1.04,0,0,0,.431-1.223c-4.569-13.335-66.727-194.257-84.246-220.652a1.011,1.011,0,0,1-.159-.736c3.021-17.342,16.29-76.241,24.464-95.113a38.267,38.267,0,0,0,2.777-9.832c.278-1.967.567-3.912.747-4.941a1.02,1.02,0,0,1,.608-.769c39.8-17.251,105.621-59.229,50.1-138.318.023-.08.037-.138.037-.138s1.73-20.765-8.652-22.495-13.842,8.652-15.574,13.842c-1.6,4.8,13.086,14.046,18.035,15.4a1.03,1.03,0,0,1,.722.718c2.07,7.326,17.7,69.841-49.01,78.563a1.011,1.011,0,0,1-.262,0c-6.99-.837-18.4-1.984-32.176-2.538a1.061,1.061,0,0,1-1.006-.9l-4.879-33a1.047,1.047,0,0,1,1.077-1.206,22.268,22.268,0,0,0,11.463-2.978c6.163-3.3,3.786-5.767,2.19-6.8a.8.8,0,0,1-.039-1.291c8.8-7.2,10.446-15.962,6.429-19.34-1.709-1.437-3.1-1.641-4.143-1.384a1.813,1.813,0,0,1-2.3-1.5c-.977-9.349-10.438-14.89-24.449-17.476-10.287-1.9-14.135-5.6-15.56-7.877a.8.8,0,0,0-1.45.208.807.807,0,0,1-1.487.153,1.855,1.855,0,0,0-2.592-.738c-5.341,3.256-8.586,12.036-4.4,18.929,1.223,2.01,3.619,3.794,6.582,5.374a1.055,1.055,0,0,1,.5,1.316c-2.551,6.471-6.66,17.836-7.05,24.856-.571,10.25-2.78,16.9,9.073,18.964l.258.043a1.055,1.055,0,0,1,.882,1.132l-2,22.682a1.047,1.047,0,0,1-.99.957,243.607,243.607,0,0,0-44.3,6.027,1.069,1.069,0,0,1-.485,0c-56.38-12.925-42.059-70.049-40.094-77a1.014,1.014,0,0,1,.716-.709c4.943-1.353,19.639-10.6,18.038-15.4-1.73-5.192-5.192-15.574-15.574-13.842s-8.652,22.495-8.652,22.495.014.058.037.138c-51.769,73.748-.749,113.712,39.362,133.116a1.041,1.041,0,0,1,.588.9l.157,3.92a36,36,0,0,0,1.155,7.712c4.149,15.768,20.257,76.6,29.555,106.037l.225.039c4.132,25.845,34.056,213.192,35.3,225.253a1.035,1.035,0,0,0,.664.862c.41.157,1.012.373,1.773.6a1.053,1.053,0,0,1,.73.823l1.38,7.689a1.05,1.05,0,0,1-.726,1.194c-8.966,2.722-29.452,9.747-37.108,19.14a16.556,16.556,0,0,0-1.38,1.922,1.968,1.968,0,0,0,0,2.029L1568.06,552.75l24.315,2.392,65.58-14.211c5.916-.105,12.329-.32,19.109-.7a2.856,2.856,0,0,0,2.714-2.7c.012-.272.02-.567.025-.876a37.111,37.111,0,0,0-6.046-20.371,1.059,1.059,0,0,1-.165-.614l.4-7.854a1.052,1.052,0,0,1,.788-.963q.684-.186,1.377-.412a1.04,1.04,0,0,0,.709-1.021c-.283-9.96-3.367-114.217-10.123-161.883a1.052,1.052,0,0,1,1.957-.668c12.281,21.771,61.279,109.681,78.75,157.138a1.038,1.038,0,0,0,1.149.67l.542-.093a1.058,1.058,0,0,1,1.182.689l2.67,7.613a1.07,1.07,0,0,1-.07.852,12.261,12.261,0,0,0-1,8.093c1.165,6.407,3.353,16.515,7.353,25.041l-.936-.429-103.264,13.987,15.189,4.633,98.381-8.452a11.185,11.185,0,0,0,1.73.235,21.87,21.87,0,0,0,10.613-1.934,6.827,6.827,0,0,0,3.833-7.551Z" transform="translate(-1212.593 -0.008)" fill="#91b3fa"/>
        <g id="Group_61" data-name="Group 61" transform="translate(39.973 10.635)">
          <path id="Path_379" data-name="Path 379" d="M194.072,55.737a3.037,3.037,0,0,1,4.477-3.658c25.138,16.177,87.733,66.958,94.3,174.641,8.242,135.106,44.651,178.249,84.332,201.35,0,0-49.6-5.163-88.219-48.635C194.148,272.7,213.6,104.3,194.072,55.737Z" transform="translate(-193.844 -51.583)" fill="#bdd0fb"/>
          <path id="Path_380" data-name="Path 380" d="M310.706,253.2c5.39,14.216,10.5,28.532,15.075,43.014q6.978,21.682,12.615,43.744c3.7,14.712,7.112,29.493,9.9,44.4,2.852,14.89,5.06,29.885,7.227,44.948,2.248,15.042,4.427,30.211,8.166,45.2,3.718,14.962,9.279,29.72,17.375,43.026,2.021,3.316,4.112,6.607,6.374,9.741,2.206,3.178,4.553,6.26,6.953,9.3A159.946,159.946,0,0,0,448.1,580.234a2.94,2.94,0,0,0,2.753-5.194l-.01-.006c-3.291-1.8-6.559-3.638-9.733-5.613-1.6-.963-3.161-1.994-4.736-3-1.536-1.06-3.114-2.062-4.615-3.169a154.865,154.865,0,0,1-17.236-14.222A169.913,169.913,0,0,1,386.606,514.2a147.947,147.947,0,0,1-9.941-19.954,167.6,167.6,0,0,1-6.943-21.284c-3.743-14.529-6.023-29.522-8.38-44.548-2.375-15.026-4.866-30.11-7.976-45.067q-2.3-11.222-5-22.354c-.878-3.716-1.829-7.413-2.773-11.11q-1.469-5.533-3.008-11.046-6.217-22.038-13.78-43.641c-5.114-14.368-10.607-28.6-16.638-42.587a.788.788,0,0,0-1.46.592Z" transform="translate(-286.566 -210.776)" fill="#fff" style="mix-blend-mode: soft-light;isolation: isolate"/>
        </g>
        <g id="Group_62" data-name="Group 62" transform="translate(0.177 84.497)">
          <path id="Path_381" data-name="Path 381" d="M117.785,747.054a7.637,7.637,0,0,1-12.055,3.934c-23.618-18.381-85.7-76.394-87.877-179.69C16.012,484.066,6.726,436.943,1.027,415.842a4.79,4.79,0,0,1,7.607-4.994C48.565,442.56,170.527,557.713,117.785,747.054Z" transform="translate(-0.85 -409.788)" fill="#91b3fa"/>
          <path id="Path_382" data-name="Path 382" d="M258.244,1109.711a1.983,1.983,0,0,1-.346.219,2.117,2.117,0,0,1-2.846-.932c-.6-1.184-59.994-119.669-68.03-240.842a2.118,2.118,0,1,1,4.227-.28c7.978,120.29,66.987,238.033,67.583,239.209a2.118,2.118,0,0,1-.586,2.627Z" transform="translate(-148.63 -771.847)" fill="#fff" style="mix-blend-mode: soft-light;isolation: isolate"/>
        </g>
        <g id="Group_75" data-name="Group 75" transform="translate(74.393 38.767)">
          <path id="Path_383" data-name="Path 383" d="M360.77,499.484A30.983,30.983,0,0,1,391.754,468.5H655.247a27.3,27.3,0,0,1,27.262,25.909l19.449,382.014a20.129,20.129,0,0,1-19.738,21.15l-302,5.489a19.107,19.107,0,0,1-19.455-19.1V499.484Z" transform="translate(-360.77 -410.663)" fill="url(#linear-gradient-2)"/>
          <g id="Group_74" data-name="Group 74" transform="translate(21.542 54.677)">
            <path id="Path_384" data-name="Path 384" d="M465.246,462.235a9,9,0,0,1,10.207-8.976c35.982,4.879,159.716,19.971,262.017,12.118a8.321,8.321,0,0,1,8.962,7.85l20.393,383.717a9.576,9.576,0,0,1-9,10.071C714.8,869.563,537.6,879.4,474.4,872.785a7.587,7.587,0,0,1-6.79-7.51l-2.371-403.04Z" transform="translate(-465.24 -453.176)" fill="#91b3fa"/>
            <path id="Path_385" data-name="Path 385" d="M485.7,510.179a8.66,8.66,0,0,1,9.823-8.638c34.627,4.7,153.7,19.218,252.152,11.661a8.01,8.01,0,0,1,8.625,7.553l19.626,369.268a9.219,9.219,0,0,1-8.658,9.694c-41.405,2.45-211.928,11.923-272.751,5.553a7.3,7.3,0,0,1-6.535-7.227Z" transform="translate(-481.48 -491.504)" fill="#fff" opacity="0.6"/>
            <path id="Path_386" data-name="Path 386" d="M1135.433,874.213l4.6,57.44c.152,1.909,2.813,3.429,6.108,3.483,18.333.3,75.464,1.109,107.72.132,3.65-.111,6.535-1.823,6.656-3.943.614-10.772,1.961-42.125-2.27-55.231-.683-2.118-3.819-3.668-7.531-3.745l-108.365-2.2c-3.907-.078-7.1,1.794-6.918,4.06Z" transform="translate(-997.231 -784.168)" fill="#fff" opacity="0.49"/>
            <g id="Group_63" data-name="Group 63" transform="translate(28.163 82.82)" opacity="0.6">
              <path id="Path_387" data-name="Path 387" d="M603.96,854.822a1.944,1.944,0,0,0-2.058,2.567l1.025,3.951a3.8,3.8,0,0,0,3.437,2.691l93.352,1.039a2.684,2.684,0,0,0,2.718-2.718l-.016-1.406a2.914,2.914,0,0,0-2.778-2.844l-95.678-3.283Z" transform="translate(-601.817 -854.82)" fill="#fff"/>
            </g>
            <g id="Group_64" data-name="Group 64" transform="translate(27.338 103.028)" opacity="0.6">
              <path id="Path_388" data-name="Path 388" d="M599.96,952.822a1.944,1.944,0,0,0-2.058,2.567l1.025,3.951a3.8,3.8,0,0,0,3.437,2.691l93.352,1.039a2.684,2.684,0,0,0,2.718-2.718l-.016-1.406a2.914,2.914,0,0,0-2.778-2.843l-95.678-3.283Z" transform="translate(-597.817 -952.82)" fill="#fff"/>
            </g>
            <g id="Group_65" data-name="Group 65" transform="translate(28.36 210.345)" opacity="0.6">
              <path id="Path_389" data-name="Path 389" d="M602.915,1475.819l1.072,3.144a4.12,4.12,0,0,0,3.637,2.6H714.51a2.664,2.664,0,0,0,2.67-2.749l-.021-.736a2.916,2.916,0,0,0-2.827-2.8l-109.559-2.015a1.806,1.806,0,0,0-1.86,2.551Z" transform="translate(-602.774 -1473.268)" fill="#fff"/>
            </g>
            <g id="Group_66" data-name="Group 66" transform="translate(30.211 232.368)" opacity="0.6">
              <path id="Path_390" data-name="Path 390" d="M613.871,1580.072a1.942,1.942,0,0,0-2.027,2.59l1.064,3.917a3.8,3.8,0,0,0,3.47,2.652h93.356a2.683,2.683,0,0,0,2.687-2.749l-.031-1.39a2.915,2.915,0,0,0-2.81-2.813l-95.709-2.21Z" transform="translate(-611.751 -1580.07)" fill="#fff"/>
            </g>
            <g id="Group_67" data-name="Group 67" transform="translate(27.954 161.409)" opacity="0.6">
              <path id="Path_391" data-name="Path 391" d="M832.932,1243.626l-.105-2.312a2.956,2.956,0,0,0-2.874-2.778l-227.424-2.588c-1.511-.017-2.151,1.052-1.421,2.375l3.112,5.64a5.148,5.148,0,0,0,4.077,2.406H830.309a2.608,2.608,0,0,0,2.623-2.747Z" transform="translate(-600.805 -1235.949)" fill="#fff"/>
            </g>
            <g id="Group_68" data-name="Group 68" transform="translate(27.954 183.058)" opacity="0.6">
              <path id="Path_392" data-name="Path 392" d="M601.107,1343.317l3.112,5.64a5.147,5.147,0,0,0,4.077,2.406H830.309a2.608,2.608,0,0,0,2.623-2.747l-.105-2.312a2.956,2.956,0,0,0-2.874-2.778l-227.424-2.588c-1.511-.016-2.151,1.052-1.421,2.375Z" transform="translate(-600.805 -1340.939)" fill="#fff"/>
            </g>
            <g id="Group_73" data-name="Group 73" transform="translate(29.519 260.539)">
              <g id="Group_69" data-name="Group 69" opacity="0.6">
                <path id="Path_393" data-name="Path 393" d="M608.6,1722.488c.709,2.043,3.151,3.46,5.93,3.442l226.581-1.468c2.563-.017,4.613-1.623,4.557-3.569-.054-1.893-2.085-3.409-4.576-3.417l-226.587-.786c-4-.014-6.928,2.86-5.908,5.8Z" transform="translate(-608.398 -1716.69)" fill="#fff"/>
              </g>
              <g id="Group_70" data-name="Group 70" transform="translate(0 40.209)" opacity="0.6">
                <path id="Path_394" data-name="Path 394" d="M608.6,1917.488c.709,2.043,3.151,3.46,5.93,3.441l226.581-1.468c2.563-.016,4.613-1.623,4.557-3.569-.054-1.893-2.085-3.409-4.576-3.417l-226.587-.786c-4-.015-6.928,2.86-5.908,5.8Z" transform="translate(-608.398 -1911.69)" fill="#fff"/>
              </g>
              <g id="Group_71" data-name="Group 71" transform="translate(0 80.419)" opacity="0.6">
                <path id="Path_395" data-name="Path 395" d="M608.6,2112.488c.709,2.043,3.151,3.46,5.93,3.442l226.581-1.468c2.563-.017,4.613-1.623,4.557-3.57-.054-1.893-2.085-3.408-4.576-3.417l-226.587-.786c-4-.014-6.928,2.86-5.908,5.8Z" transform="translate(-608.398 -2106.689)" fill="#fff"/>
              </g>
              <g id="Group_72" data-name="Group 72" transform="translate(0 120.834)" opacity="0.6">
                <path id="Path_396" data-name="Path 396" d="M608.6,2308.488h0c.709,2.044,3.151,3.46,5.93,3.441l226.581-1.468c2.563-.016,4.613-1.623,4.557-3.569-.054-1.893-2.085-3.409-4.576-3.417l-226.587-.786c-4-.014-6.928,2.86-5.908,5.8Z" transform="translate(-608.398 -2302.689)" fill="#fff"/>
              </g>
            </g>
            <rect id="Rectangle_5366" data-name="Rectangle 5366" width="113.617" height="42.271" rx="10.27" transform="translate(153.111 206.887)" fill="#fff" opacity="0.49"/>
            <path id="Path_397" data-name="Path 397" d="M590.77,628v24.313a4.8,4.8,0,0,0,4.691,4.8L819.9,662.14a4.8,4.8,0,0,0,4.906-4.8V640.967a4.8,4.8,0,0,0-4.522-4.79L595.845,623.209A4.8,4.8,0,0,0,590.77,628Z" transform="translate(-564.886 -588.141)" fill="#fff" opacity="0.49"/>
          </g>
          <path id="Path_398" data-name="Path 398" d="M1106.094,193.784c-9.518-6.621-17.793-6.489-23.618-4.772a11.622,11.622,0,0,0-8.254,12.217l2.511,27.423,29.9,2.654S1124.759,206.771,1106.094,193.784Zm-13.147,22.123a7.454,7.454,0,1,1,7.454-7.454A7.454,7.454,0,0,1,1092.947,215.908Z" transform="translate(-927.067 -188.013)" fill="url(#linear-gradient-3)"/>
          <path id="Path_399" data-name="Path 399" d="M1093.955,232.569a.721.721,0,0,1-.718-.656l-.4-4.367a.72.72,0,1,1,1.435-.13l.4,4.367a.721.721,0,0,1-.652.784c-.023,0-.045,0-.066,0Zm-.784-8.557a.721.721,0,0,1-.717-.656l-.3-3.316a11.09,11.09,0,0,1,7.865-11.638,22.344,22.344,0,0,1,10.927-.45.721.721,0,0,1-.291,1.413,20.968,20.968,0,0,0-10.229.419,9.647,9.647,0,0,0-6.836,10.122l.3,3.316a.72.72,0,0,1-.652.784c-.023,0-.045,0-.066,0Z" transform="translate(-941.301 -203.467)" fill="#bdd0fb"/>
          <path id="Path_400" data-name="Path 400" d="M888.77,385.576V371.79a8.414,8.414,0,0,1,8.7-8.409l95.057,3.256a8.181,8.181,0,0,1,7.887,7.687l.794,13.249Z" transform="translate(-779.895 -327.216)" fill="url(#linear-gradient-4)"/>
          <path id="Path_401" data-name="Path 401" d="M1042.084,382.943h-4.056a.744.744,0,0,1-.744-.588.723.723,0,0,1,.709-.856h4.054a.744.744,0,0,1,.744.588.723.723,0,0,1-.709.856Z" transform="translate(-897.775 -341.603)" fill="#bdd0fb"/>
          <path id="Path_402" data-name="Path 402" d="M909.77,395.207V382.263a.773.773,0,0,1,.773-.773h22.4a.087.087,0,0,1,.054.021c.689.635.252,1.423-.371,1.423H911.844a.629.629,0,0,0-.629.629v11.325c0,.623-.79,1.062-1.423.371a.082.082,0,0,1-.021-.054Z" transform="translate(-796.565 -341.595)" fill="#bdd0fb"/>
          <path id="Path_403" data-name="Path 403" d="M700.4,454.994a8.94,8.94,0,0,1,8.929-8.51l165.877,0a12.26,12.26,0,0,1,12.081,10.17l.136.786a10.551,10.551,0,0,1-10.4,12.351H706.891a6.861,6.861,0,0,1-6.852-7.19Z" transform="translate(-630.075 -393.184)" fill="url(#linear-gradient-5)"/>
        </g>
        <g id="Group_78" data-name="Group 78" transform="translate(59.957 393.639)">
          <g id="Group_76" data-name="Group 76" transform="translate(0 124.442)">
            <rect id="Rectangle_5367" data-name="Rectangle 5367" width="144.341" height="33.611" transform="translate(2.889 0.825)" fill="url(#linear-gradient-6)"/>
            <path id="Path_404" data-name="Path 404" d="M290.77,2606.5H440.679v11.925a1.068,1.068,0,0,1-1.066,1.066H292.364a1.6,1.6,0,0,1-1.594-1.594v-11.4Z" transform="translate(-290.768 -2587.117)" fill="url(#linear-gradient-7)"/>
            <path id="Path_405" data-name="Path 405" d="M290.762,2535.5H440.671v11.409a1.583,1.583,0,0,1-1.582,1.581H292.733a1.975,1.975,0,0,1-1.973-1.973V2535.5h0Z" transform="translate(-290.76 -2530.757)" fill="url(#linear-gradient-8)"/>
            <path id="Path_406" data-name="Path 406" d="M292.2,2512.5H439.242a1.436,1.436,0,0,1,1.435,1.435v3.308H290.77v-3.308a1.436,1.436,0,0,1,1.435-1.435Z" transform="translate(-290.768 -2512.5)" fill="url(#linear-gradient-9)"/>
          </g>
          <g id="Group_77" data-name="Group 77" transform="translate(41.45)">
            <ellipse id="Ellipse_9" data-name="Ellipse 9" cx="11.323" cy="9.772" rx="11.323" ry="9.772" transform="translate(221.264 156.276) rotate(-63.39)" fill="url(#linear-gradient-10)"/>
            <rect id="Rectangle_5368" data-name="Rectangle 5368" width="12.851" height="8.399" rx="4.199" transform="translate(219.414 150.024) rotate(-64.07)" fill="url(#linear-gradient-11)"/>
            <path id="Path_407" data-name="Path 407" d="M1015.775,2312.428a26.623,26.623,0,0,1-6.015,12.3,7.266,7.266,0,0,1-7.013,2.309c-25.474-5.116-78.866-38.114-130.716-66.941-3.435-1.912-5.811-4.079-4.192-7.407l3.576-7.353c1.608-3.309,5.46-1.445,9.075.04,54.846,22.533,113.017,42.174,132.988,60.349a7.224,7.224,0,0,1,2.3,6.7Z" transform="translate(-789.883 -2174.523)" fill="url(#linear-gradient-12)"/>
            <rect id="Rectangle_5369" data-name="Rectangle 5369" width="29.18" height="8.541" rx="4.27" transform="translate(69.719 85.144) rotate(-64.07)" fill="url(#linear-gradient-13)"/>
            <rect id="Rectangle_5370" data-name="Rectangle 5370" width="29.18" height="8.541" rx="4.27" transform="translate(15.76 60.224) rotate(-64.07)" fill="url(#linear-gradient-14)"/>
            <rect id="Rectangle_5371" data-name="Rectangle 5371" width="87.716" height="59.427" transform="translate(3.376 91.794) rotate(-64.07)" fill="url(#linear-gradient-15)"/>
            <rect id="Rectangle_5372" data-name="Rectangle 5372" width="11.032" height="59.427" transform="translate(0.573 97.549) rotate(-64.07)" fill="url(#linear-gradient-16)"/>
            <path id="Path_408" data-name="Path 408" d="M547.969,2386.47l-2.4,4.93a3.425,3.425,0,0,1-4.056,1.785,166.394,166.394,0,0,1-48.3-23.513,3.375,3.375,0,0,1-1.1-4.242l2.408-4.951,53.443,25.988Z" transform="translate(-491.779 -2267.385)" fill="url(#linear-gradient-17)"/>
            <path id="Path_409" data-name="Path 409" d="M562.079,2341.962l-1.862,3.829a.9.9,0,0,1-1.2.415l-55.672-27.072a.9.9,0,0,1-.415-1.2l1.862-3.829a.9.9,0,0,1,1.2-.414l55.672,27.072A.9.9,0,0,1,562.079,2341.962Z" transform="translate(-500.56 -2230.173)" fill="url(#linear-gradient-18)"/>
            <path id="Path_410" data-name="Path 410" d="M562.877,2344.936l-1.369,2.815a.658.658,0,0,1-.88.3l-56.1-27.28a.659.659,0,0,1-.305-.881l1.369-2.814a.659.659,0,0,1,.88-.305l56.1,27.279a.658.658,0,0,1,.305.88Z" transform="translate(-501.606 -2232.639)" fill="url(#linear-gradient-19)"/>
            <rect id="Rectangle_5373" data-name="Rectangle 5373" width="11.032" height="59.427" transform="translate(100.307 28.381) rotate(115.93)" fill="url(#linear-gradient-20)"/>
            <path id="Path_411" data-name="Path 411" d="M761.941,1941.844l2.4-4.93a3.428,3.428,0,0,0-1.1-4.3,166.431,166.431,0,0,0-48.317-23.468,3.377,3.377,0,0,0-4.015,1.753l-2.408,4.951,53.443,25.988Z" transform="translate(-663.812 -1909.005)" fill="url(#linear-gradient-21)"/>
            <path id="Path_412" data-name="Path 412" d="M734.927,1986.511l1.862-3.829a.9.9,0,0,0-.414-1.2L680.7,1954.411a.9.9,0,0,0-1.2.415l-1.862,3.829a.9.9,0,0,0,.414,1.2l55.672,27.072A.9.9,0,0,0,734.927,1986.511Z" transform="translate(-639.245 -1944.977)" fill="url(#linear-gradient-22)"/>
            <path id="Path_413" data-name="Path 413" d="M736.218,1988.478l1.369-2.815a.658.658,0,0,0-.305-.88l-56.1-27.279a.659.659,0,0,0-.88.305l-1.369,2.815a.658.658,0,0,0,.305.88l56.1,27.278A.658.658,0,0,0,736.218,1988.478Z" transform="translate(-640.29 -1947.451)" fill="url(#linear-gradient-23)"/>
          </g>
        </g>
        <g id="Group_81" data-name="Group 81" transform="translate(315.237 207.894)">
          <path id="Path_414" data-name="Path 414" d="M1765.392,1692.919l-25.672.318,8.984-8.458a6.706,6.706,0,0,1,8.219-.771,19.423,19.423,0,0,1,4.565,4.068s16.014-5.852,23.777-18.946a79.171,79.171,0,0,1,7.7,14.562C1786,1687.777,1776.981,1690.99,1765.392,1692.919Z" transform="translate(-1696.222 -1532.848)" fill="url(#linear-gradient-24)"/>
          <path id="Path_415" data-name="Path 415" d="M1697.986,2672.29c6.835.59,18.7,1.551,28.047,1.961,5.621.248,8.859-.3,10.721-1.05,0,.21-.008.408-.017.594a1.934,1.934,0,0,1-1.837,1.827,328.487,328.487,0,0,1-36.725.037,1.376,1.376,0,0,1-1.122-2.068,11.281,11.281,0,0,1,.934-1.3Z" transform="translate(-1662.199 -2329.155)" fill="url(#linear-gradient-25)"/>
          <path id="Path_416" data-name="Path 416" d="M1730.367,2621.262c-9.351-.412-21.214-1.371-28.047-1.961,6.72-8.244,28.047-13.8,28.047-13.8h6.023a25.265,25.265,0,0,1,4.7,14.714c-1.864.747-5.1,1.3-10.721,1.05Z" transform="translate(-1666.533 -2276.137)" fill="url(#linear-gradient-26)"/>
          <path id="Path_417" data-name="Path 417" d="M1829.208,2557.5l-.563,11.156a2.548,2.548,0,0,1-2.175,2.4,9.913,9.913,0,0,1-4.524-.375,3.014,3.014,0,0,1-2.027-2.317l-1.949-10.859Z" transform="translate(-1758.336 -2238.034)" fill="url(#linear-gradient-27)"/>
          <g id="Group_79" data-name="Group 79" transform="translate(123.211 322.97)">
            <path id="Path_418" data-name="Path 418" d="M2171.83,2702.66a5.63,5.63,0,0,0,4.866-4.19.431.431,0,0,1,.01.052,4.628,4.628,0,0,1-2.6,5.114,14.781,14.781,0,0,1-7.186,1.31,6.8,6.8,0,0,1-5.388-2.893l-.017-.025c2.233,1.286,5.367,1.437,10.31.635Z" transform="translate(-2154.257 -2672.906)" fill="url(#linear-gradient-28)"/>
            <path id="Path_419" data-name="Path 419" d="M2129.894,2574.495h4.967c7.567-.179,12.319,18.4,13.873,25.6a5.631,5.631,0,0,1-4.866,4.19c-4.943.8-8.077.652-10.31-.635-4.087-6.263-6.114-15.437-7.089-20.79C2125.362,2576.767,2129.894,2574.495,2129.894,2574.495Z" transform="translate(-2126.295 -2574.493)" fill="url(#linear-gradient-29)"/>
          </g>
          <path id="Path_420" data-name="Path 420" d="M2124.02,2524.13l2.759,10.972a2.98,2.98,0,0,1-1.549,3.375,10.568,10.568,0,0,1-5.712,1.384,2.49,2.49,0,0,1-2.029-1.657l-4.05-11.543,10.582-2.528Z" transform="translate(-1992.88 -2211.545)" fill="url(#linear-gradient-30)"/>
          <path id="Path_421" data-name="Path 421" d="M1694.16,1811.366s24.651,154.091,24.245,154.936a20.5,20.5,0,0,0,14.23.394s-2.229-82.371-7.452-113.955c0,0,42.071,73.625,55.431,110.31a33.4,33.4,0,0,0,12.737-4.627s-45.3-132.52-57.384-150.173l-41.807,3.114Z" transform="translate(-1660.056 -1643.281)" fill="url(#linear-gradient-31)"/>
          <path id="Path_422" data-name="Path 422" d="M1773.679,1951.3a1.178,1.178,0,0,0,.631-.181,1.192,1.192,0,0,0,.377-1.641l-9.211-14.715a1.192,1.192,0,0,0-.775-.536l-6.78-1.365a1.191,1.191,0,0,0-.468,2.336l6.277,1.264,8.939,14.279a1.192,1.192,0,0,0,1.01.559Z" transform="translate(-1709.538 -1742.18)" opacity="0.6" fill="url(#linear-gradient-32)"/>
          <path id="Path_423" data-name="Path 423" d="M1663.263,1313.521c4.147-8.7,39.943-9.613,66.168-.948a20.374,20.374,0,0,1,12.294,11.191c7.094,16.28,18.579,53.357-13.3,72.074a79.037,79.037,0,0,0-7.7-14.562c5.134-8.66,6.656-20.49-2.456-35.9-6.644,17.939-9.762,44.117-10.413,55.7a24.925,24.925,0,0,0,1.951,11.143l.163.383a1.319,1.319,0,0,1-.926,1.8c-17.95,4.031-36.619,2.936-42.2,2.476a2.3,2.3,0,0,1-2.052-1.757c-8.729-36.778-7.778-88.514-1.534-101.608Z" transform="translate(-1631.679 -1245.007)" fill="url(#linear-gradient-33)"/>
          <path id="Path_424" data-name="Path 424" d="M1803.163,1197.672s1.817,19.2,3.415,24.878a1.939,1.939,0,0,1-.916,2.217c-2.714,1.551-9.221,4.079-18.125-.284a4.038,4.038,0,0,1-2.241-3.8l.784-18.554,17.082-4.458Z" transform="translate(-1732.397 -1158.604)" fill="url(#linear-gradient-34)"/>
          <g id="Group_80" data-name="Group 80" transform="translate(45.768)">
            <path id="Path_425" data-name="Path 425" d="M1761.957,1078.56s-5.809,13.341-6.2,20.344-1.9,11.547,6.2,12.958,14.919-2.623,18.614-9.6c0,0,5.79-10.749,4.491-15.15s-23.1-8.551-23.1-8.551Z" transform="translate(-1754.43 -1064.055)" fill="url(#linear-gradient-35)"/>
            <path id="Path_426" data-name="Path 426" d="M1774.1,1041.472l-.462-.2a1.116,1.116,0,0,1-.54-1.532c1.142-2.208,3.363-7.258.491-8.436-3.705-1.52-18.385-4.514-21.552-9.722-3.05-5.017-.336-11.494,3.73-13.316a.549.549,0,0,1,.705.249l.338.639a.55.55,0,0,0,1.015-.1h0a.549.549,0,0,1,.992-.142c.973,1.559,3.6,4.085,10.63,5.382,9.984,1.843,16.585,5.881,16.758,12.776a.561.561,0,0,0,.852.466c.738-.449,1.918-.662,3.5.666,2.742,2.307,1.621,8.289-4.392,13.211a.545.545,0,0,0,.027.88c1.091.709,2.716,2.4-1.495,4.65-4.365,2.332-7.621,2.136-8.869,1.93a.545.545,0,0,1-.439-.654l1.338-6.073a.549.549,0,0,0-.538-.668H1774.1Z" transform="translate(-1750.728 -1008.214)" fill="url(#linear-gradient-36)"/>
            <path id="Path_427" data-name="Path 427" d="M1862.85,1150.165s2.214-8.522,6.037-6.133-1.984,9.549-5.054,9.869l-.982-3.734Z" transform="translate(-1839.73 -1115.691)" fill="url(#linear-gradient-37)"/>
          </g>
          <rect id="Rectangle_5374" data-name="Rectangle 5374" width="68.253" height="74.026" rx="4.25" transform="translate(8.454 88.52)" fill="url(#linear-gradient-38)"/>
          <rect id="Rectangle_5375" data-name="Rectangle 5375" width="68.253" height="74.026" rx="4.25" transform="translate(0 88.726)" fill="url(#linear-gradient-39)"/>
          <path id="Path_428" data-name="Path 428" d="M1854.974,1720.279a8.58,8.58,0,0,0-7.281-3.64c-2.635,0-5.466,2.53-7.584,4.976a4.42,4.42,0,0,0,1.227,6.778,30.761,30.761,0,0,1,6.359,4.264c2.911,2.912,7.281-6.553,7.281-12.376Z" transform="translate(-1775.053 -1570.561)" fill="url(#linear-gradient-40)"/>
        </g>
      </g>
    </g>
  </g>
</svg>
